<?xml version="1.0" encoding="UTF-8" standalone="no"?>
<svg
   width="309.7868pt"
   height="301.67606pt"
   viewBox="0 0 309.78681 301.67605"
   version="1.1"
   id="svg4172"
   sodipodi:docname="Figure_0.svg"
   inkscape:version="1.2.2 (732a01da63, 2022-12-09)"
   xmlns:inkscape="http://www.inkscape.org/namespaces/inkscape"
   xmlns:sodipodi="http://sodipodi.sourceforge.net/DTD/sodipodi-0.dtd"
   xmlns:xlink="http://www.w3.org/1999/xlink"
   xmlns="http://www.w3.org/2000/svg"
   xmlns:svg="http://www.w3.org/2000/svg"
   xmlns:rdf="http://www.w3.org/1999/02/22-rdf-syntax-ns#"
   xmlns:cc="http://creativecommons.org/ns#"
   xmlns:dc="http://purl.org/dc/elements/1.1/">
  <sodipodi:namedview
     id="namedview4174"
     pagecolor="#ffffff"
     bordercolor="#000000"
     borderopacity="0.25"
     inkscape:showpageshadow="2"
     inkscape:pageopacity="0.0"
     inkscape:pagecheckerboard="0"
     inkscape:deskcolor="#d1d1d1"
     inkscape:document-units="pt"
     showgrid="false"
     inkscape:zoom="2.0486111"
     inkscape:cx="237.72204"
     inkscape:cy="146.44068"
     inkscape:window-width="2560"
     inkscape:window-height="1506"
     inkscape:window-x="-11"
     inkscape:window-y="-11"
     inkscape:window-maximized="1"
     inkscape:current-layer="svg4172" />
  <metadata
     id="metadata3848">
    <rdf:RDF>
      <cc:Work>
        <dc:type
           rdf:resource="http://purl.org/dc/dcmitype/StillImage" />
        <dc:date>2025-02-04T15:21:47.988288</dc:date>
        <dc:format>image/svg+xml</dc:format>
        <dc:creator>
          <cc:Agent>
            <dc:title>Matplotlib v3.9.2, https://matplotlib.org/</dc:title>
          </cc:Agent>
        </dc:creator>
      </cc:Work>
    </rdf:RDF>
  </metadata>
  <defs
     id="defs3852">
    <style
       type="text/css"
       id="style3850">*{stroke-linejoin: round; stroke-linecap: butt}</style>
  </defs>
  <g
     id="PolyCollection_1"
     transform="translate(-78.158687,-22.8095)">
    <path
       d="m 369.216,174.528 h -40.72796 l 0.31972,-0.58213 0.31867,-0.58618 0.31759,-0.59026 0.31647,-0.59436 0.3153,-0.59849 0.3141,-0.60265 0.31286,-0.60682 0.31158,-0.61103 0.31024,-0.61525 0.30888,-0.61951 0.30746,-0.62378 0.306,-0.62808 0.30449,-0.6324 0.30294,-0.63675 0.30133,-0.6411 0.29968,-0.64549 0.29798,-0.6499 0.29622,-0.65431 0.29441,-0.65876 0.29255,-0.66323 0.29064,-0.6677 0.28866,-0.6722 0.28664,-0.6767 0.28456,-0.68124 0.28241,-0.68578 0.28021,-0.69033 0.27795,-0.6949 0.27562,-0.69949 0.27324,-0.70407 0.27079,-0.70868 0.26827,-0.71329 0.2657,-0.71791 15.83655,-3.99872 -0.21473,-0.72643 -0.21871,-0.72482 -0.22267,-0.72319 -0.22663,-0.72156 -0.23058,-0.71989 -0.2345,-0.71821 -0.23842,-0.71651 -0.24232,-0.7148 -0.24621,-0.71307 -0.25008,-0.71132 -0.25395,-0.70956 -0.2578,-0.70778 -0.26164,-0.70598 -0.26547,-0.70416 -0.26927,-0.70233 -0.27307,-0.70049 -0.20595,-0.72166 -0.0944,-0.75904 -0.0989,-0.75949 -0.10342,-0.75994 -0.10793,-0.76035 -0.11246,-0.76073 -0.11702,-0.7611 -0.12158,-0.76144 -0.12617,-0.76174 -0.13076,-0.76203 -0.13538,-0.76229 -0.14001,-0.76252 -0.14464,-0.76272 -0.14931,-0.76289 -0.15399,-0.76304 -0.15867,-0.76317 -0.16338,-0.76325 -0.16809,-0.76332 -0.17283,-0.76335 -0.17758,-0.76335 -0.18234,-0.76333 -0.18711,-0.76327 -0.19191,-0.76319 -0.1967,-0.76308 -0.20153,-0.76292 -0.20635,-0.76275 -0.2112,-0.76255 0.83216,-1.31309 -0.15591,-0.80515 -2.70581,0.57243 -0.74686,-0.46648 -0.36807,-0.67166 -0.3719,-0.66956 -0.37574,-0.66746 3.86845,-3.1417 -0.3946,-0.69242 -0.39878,-0.69011 -0.40292,-0.68778 -0.0279,-0.91939 -2.79526,0.80571 -0.42039,-0.65981 -0.42423,-0.65731 -0.42806,-0.6548 -0.43188,-0.65226 -0.43568,-0.64971 -0.43946,-0.64713 -0.44324,-0.64454 -0.447,-0.64192 -0.45074,-0.63929 -0.45447,-0.63663 -0.45819,-0.63396 0.39218,-1.26002 1.51339,-2.113016 -0.48141,-0.644458 -0.48531,-0.641551 0.14447,-1.130124 0.44696,-1.380714 -1.2688,-0.03431 -0.65534,-0.513273 -0.65764,-0.508347 -0.52536,-0.614714 -1.33903,0.06728 -0.8736,-0.310085 -1.70298,0.410499 -0.81744,-0.334391 -0.59007,-0.528199 -0.94928,-0.205906 -0.84322,-0.292129 -0.84262,-0.285372 -0.84192,-0.278664 -0.7424,-0.364742 -0.52416,-0.567232 -0.52746,-0.564241 -0.53075,-0.561234 -0.53403,-0.558209 -0.53728,-0.555165 -0.54054,-0.552106 -0.54376,-0.549027 2.7866,-4.007611 -6.8572,6.04565 -0.82129,-0.214773 -0.81988,-0.208786 -0.81844,-0.202851 -0.81692,-0.196971 -0.81535,-0.191145 -0.81373,-0.185374 -0.81206,-0.179657 -0.81034,-0.173996 -0.80856,-0.16839 -0.80674,-0.162839 -0.80487,-0.157344 -0.80296,-0.151905 -0.801,-0.146522 -0.799,-0.141196 -0.79694,-0.135924 -0.79487,-0.130709 -0.79274,-0.125551 -0.58575,-0.391467 -1.60417,0.974707 -0.79136,-0.09248 -0.78879,-0.08758 -0.78618,-0.08275 -0.78354,-0.07798 -0.78087,-0.07326 -0.77817,-0.06861 -0.77545,-0.06402 -0.77269,-0.05948 -0.76991,-0.05501 -0.76711,-0.05059 -0.76428,-0.04624 -0.76144,-0.04194 -0.75856,-0.0377 -0.75568,-0.03351 -0.75277,-0.02939 -0.74984,-0.02532 -0.7469,-0.0213 -0.74395,-0.01735 -0.74097,-0.01345 -0.73799,-0.0096 -0.735,-0.0058 -0.73198,-0.0021 -0.72897,0.0016 -0.72594,0.0052 -0.72291,0.0088 -0.71986,0.01235 -0.71681,0.01583 -0.71375,0.01925 -0.7107,0.02263 -0.70763,0.02595 -0.70456,0.02922 -0.7015,0.03245 -0.69842,0.03563 -0.69534,0.03875 -0.69228,0.04184 -0.6892,0.04487 -0.68613,0.04786 -0.68307,0.05081 -0.67999,0.0537 -0.67694,0.05656 -0.67387,0.05937 -0.67082,0.06214 -0.66777,0.06486 -0.66473,0.06754 -0.66169,0.07019 -0.65866,0.07279 -0.65564,0.07535 -0.65262,0.07787 -0.64962,0.08035 -0.64662,0.08279 -0.64363,0.0852 -0.64066,0.08756 -0.63768,0.0899 -0.63474,0.09219 -0.63178,0.09445 -0.62885,0.09668 -0.62593,0.09886 -0.62302,0.101021 -0.62012,0.103142 -0.61724,0.105232 -0.61437,0.10729 -0.61151,0.109315 -0.60867,0.11131 -0.60584,0.113273 -0.60303,0.115208 -0.60023,0.117112 -0.59745,0.118987 -0.59467,0.120833 -0.59193,0.122653 -0.58918,0.124444 -0.58647,0.126209 -0.58376,0.127947 -0.58107,0.129659 -0.57841,0.131346 -0.57574,0.133008 -0.57311,0.134646 -0.57049,0.136259 -0.56789,0.137849 -0.5653,0.139417 -0.56273,0.140961 -0.56018,0.142484 -0.55765,0.143985 -0.55513,0.145465 -0.55264,0.146924 -0.55015,0.148363 -0.5477,0.149783 -0.54525,0.151183 -0.54283,0.152563 -0.54042,0.153926 -0.53804,0.155271 -0.53567,0.156597 -0.53331,0.157907 -0.53099,0.159199 -0.52867,0.160476 -0.52638,0.161736 -0.5241,0.16298 -0.52184,0.16421 -0.5196,0.165424 -0.64411,6.888567 -0.47307,0.178097 -0.47076,0.178776 -0.46847,0.179447 -0.46622,0.1801 -0.46398,0.18076 -0.46177,0.1814 -0.45958,0.18203 -0.45742,0.18265 -0.45529,0.18328 -0.45317,0.18388 -0.45107,0.18449 -0.44901,0.18508 -0.44697,0.18567 -0.44495,0.18626 -0.44294,0.18683 -0.44098,0.1874 -0.43901,0.18797 -0.4371,0.18853 -0.43518,0.18909 -0.4333,0.18963 -0.43143,0.19019 -0.4296,0.19072 -0.42777,0.19127 -0.42598,0.1918 -0.42421,0.19233 -0.42245,0.19286 -0.42072,0.19339 -0.419,0.19391 -0.41732,0.19443 -0.41565,0.19495 -0.414,0.19547 -0.41237,0.19598 -0.41076,0.19649 -0.40918,0.19701 -0.40761,0.19752 -0.40606,0.19802 -0.40453,0.19854 -0.40303,0.19904 -0.40154,0.19955 -0.40007,0.20006 -0.39862,0.20057 -0.39719,0.20108 -0.39578,0.20158 -0.39438,0.20209 -0.39302,0.20261 -0.39165,0.20311 -0.39033,0.20362 -0.389,0.20414 -0.3877,0.20465 -0.38642,0.20517 -0.38516,0.20569 -0.38391,0.2062 -0.38268,0.20673 -0.38147,0.20725 -0.38028,0.20777 -0.3791,0.20831 -0.37794,0.20884 -0.3768,0.20937 -0.37567,0.20991 -0.37456,0.21044 -0.37347,0.211 -0.3724,0.21154 -0.37325,0.20724 -0.81547,-0.89134 -0.83951,-0.91246 -0.86436,-0.934 -0.88999,-0.95591 -0.91644,-0.97819 -0.94372,-1.00079 -0.97181,-1.02368 -1.00073,-1.04681 -1.03046,-1.07014 -1.06101,-1.09361 -1.09234,-1.11716 -1.12445,-1.140703 -1.15732,-1.164181 -1.19088,-1.187494 -1.22514,-1.210546 -7.29892,-12.903424 -0.56318,0.31563 -0.56159,0.318133 -0.56001,0.320631 -0.55841,0.323126 -0.55682,0.325617 -0.55523,0.328103 -0.55363,0.330585 -0.55202,0.333064 -0.55042,0.33554 -0.54881,0.338011 -0.5472,0.340479 -0.54558,0.342945 -0.54396,0.345406 -0.54234,0.347864 -0.54071,0.35032 -0.53908,0.352773 -0.53745,0.355222 -2.87789,-3.135617 -4.68868,-5.706044 -0.59185,0.404444 -8.99936,-11.638416 -0.66468,0.461498 1.27051,3.160717 -0.60828,0.504042 1.46344,3.317103 -0.54538,0.549645 -0.61816,0.450949 -0.61564,0.454514 -0.6131,0.458068 -0.61053,0.461609 -0.60796,0.465139 -0.60535,0.468657 -0.60274,0.472161 -0.6001,0.475654 -0.59745,0.479135 -0.59478,0.482604 -0.59209,0.486058 -0.58938,0.489502 -0.58665,0.492933 -0.58352,0.496785 -0.58063,0.50032 -0.57784,0.503706 -0.57503,0.507078 -0.57221,0.510439 -0.56937,0.513784 1.93196,3.111589 -0.29182,0.766752 -0.2862,0.766269 -0.28062,0.765735 -0.27507,0.765151 -0.40103,0.636323 -0.53212,0.507331 -0.52951,0.510366 -0.52688,0.513391 1.65535,2.537542 -0.15786,0.827131 -0.15213,0.824816 -0.14648,0.822449 -0.14088,0.820037 -0.13536,0.81756 2.1267,2.75467 -0.1067,0.80309 -0.10164,0.80014 -0.0967,0.79716 -0.0917,0.79413 -0.0869,0.79107 -0.0821,0.78799 -0.0774,0.78486 -0.0728,0.78173 -0.0682,0.77854 -0.20546,0.66823 -0.44229,0.48782 -0.44031,0.49026 -0.43832,0.4927 -0.43632,0.49513 -0.43432,0.49757 -0.4323,0.50001 -0.43027,0.50245 -0.42823,0.50489 -0.42618,0.50733 -0.42412,0.50977 -0.42204,0.5122 -0.41997,0.51465 -0.41787,0.51709 -0.41576,0.51953 -0.41365,0.52197 -0.41151,0.52442 -0.40937,0.52685 -0.40722,0.5293 -0.40506,0.53174 -0.40287,0.53418 -0.40069,0.53662 -0.39847,0.53907 -0.39627,0.5415 -0.39403,0.54396 -0.39179,0.54639 -0.38953,0.54883 -0.38726,0.55128 -0.38497,0.55372 -0.38268,0.55615 -0.38037,0.5586 -0.37804,0.56104 -0.37569,0.56348 -0.37335,0.56592 -0.37097,0.56836 -0.36859,0.57079 -0.36618,0.57324 -0.36377,0.57566 -0.36134,0.57811 -0.35889,0.58053 -0.35643,0.58297 -0.35396,0.5854 -0.35145,0.58784 -0.34895,0.59026 -0.34642,0.59268 -0.34387,0.59511 -0.34132,0.59754 -0.33873,0.59995 -0.33615,0.60238 -0.33353,0.60479 8.97345,3.82549 0.0199,0.66229 0.0228,0.6602 0.0258,0.65811 0.0287,0.65603 0.0315,0.65394 0.0343,0.65186 0.0371,0.64977 0.0399,0.64769 0.0427,0.64561 0.0454,0.64352 0.0481,0.64145 0.0507,0.63937 0.0534,0.63729 0.056,0.63522 0.0585,0.63316 0.0611,0.63109 0.0636,0.62903 0.0661,0.62698 0.0686,0.62492 0.071,0.62288 0.0735,0.62083 0.0759,0.6188 0.0782,0.61677 0.0806,0.61474 0.0829,0.61272 0.0852,0.61072 0.0875,0.6087 0.0898,0.6067 0.092,0.60471 0.0942,0.60273 0.0964,0.60074 0.0986,0.59878 0.10077,0.59681 0.1029,0.59485 0.10501,0.59291 0.10711,0.59097 0.10919,0.58904 -0.32622,0.54576 -0.33588,0.54835 -0.33497,0.55205 -0.33403,0.55575 -0.33306,0.55949 -0.33205,0.56325 -0.33103,0.56703 -0.32995,0.57085 -0.32886,0.57467 -0.32773,0.57854 -0.32655,0.58241 -0.32535,0.58631 -0.32411,0.59024 -0.32283,0.59419 -0.32152,0.59817 -0.32016,0.60215 -0.31876,0.60617 -0.31733,0.6102 -0.31585,0.61426 -0.31434,0.61834 -0.31277,0.62244 -0.31116,0.62655 -0.30951,0.63068 -0.30782,0.63485 -0.30607,0.63901 -0.30429,0.6432 -0.30244,0.64741 -0.30056,0.65163 -0.29862,0.65588 -0.29663,0.66012 -0.2946,0.6644 -0.2925,0.66868 -0.29035,0.67297 -0.28816,0.67728 -0.2859,0.68161 -0.28359,0.68593 -0.28122,0.69028 -0.2788,0.69463 -0.27632,0.69899 -0.27377,0.70336 -0.27117,0.70773 -0.26851,0.71212 -0.26578,0.7165 -0.26299,0.7209 -0.26014,0.72529 -0.25723,0.72969 -0.25424,0.73409 -0.2512,0.73849 -0.24809,0.74289 -0.2449,0.74728 -0.24166,0.75169 -0.23833,0.75607 -0.23496,0.76046 -0.23149,0.76485 -0.22796,0.76921 -0.22437,0.77359 -0.22069,0.77794 -0.21695,0.78228 -0.21313,0.78662 -0.20924,0.79095 -0.20527,0.79524 -0.20122,0.79954 -0.19711,0.80381 -0.19291,0.80807 -0.18864,0.8123 -0.1843,0.81652 -0.17986,0.82071 0.15453,0.71309 0.25584,0.67914 0.25942,0.67762 0.26299,0.67607 0.26655,0.67453 0.2701,0.67295 0.15765,0.71562 -0.40431,0.9355 -0.39965,0.94332 -0.39481,0.95112 -0.38977,0.95884 -0.38452,0.96653 -0.37908,0.97415 -0.37345,0.9817 -0.3676,0.98919 -0.36156,0.9966 -0.87714,1.24154 4.64354,-1.29589 0.34425,0.66113 1.18217,0.25996 0.35122,0.65048 0.34014,0.6555 0.25217,0.69943 0.36108,0.64517 0.36451,0.643 0.32677,0.66243 0.066,0.80183 0.0711,0.80365 -0.55752,1.15379 0.35871,0.6576 0.36238,0.65562 0.32577,0.67677 0.0266,0.85199 -6.58806,4.76979 0.4183,0.68529 3.46365,-1.16787 1.47798,0.005 1.15448,0.18875 1.32755,0.0658 1.41795,-0.009 1.40886,-0.0206 1.39929,-0.0322 1.31428,0.007 0.40086,0.61109 0.4042,0.60898 0.40752,0.60685 0.41085,0.60471 0.41415,0.60254 0.41746,0.60037 0.42075,0.59819 0.42404,0.59598 0.42732,0.59376 35.86625,-26.5403 0.47292,0.20408 0.4709,0.2017 0.4689,0.19935 0.46692,0.19702 0.46496,0.19474 0.46301,0.19249 0.46108,0.19026 3.67956,-2.54494 0.42507,0.1786 0.42331,0.17671 0.42155,0.17485 0.41982,0.17301 0.41812,0.17122 0.41642,0.16943 0.41475,0.16767 0.4131,0.16595 0.41148,0.16424 0.40987,0.16256 0.40828,0.16091 0.40672,0.15928 0.40517,0.15766 0.40365,0.15608 0.40214,0.15451 0.40066,0.15298 0.3992,0.15145 0.39775,0.14996 0.39633,0.14847 0.39493,0.14702 0.39355,0.14559 0.39219,0.14416 0.39084,0.14277 0.38952,0.14139 0.38822,0.14003 0.38693,0.13869 0.38567,0.13737 0.38443,0.13606 0.38321,0.13478 0.382,0.13351 0.38081,0.13225 0.37965,0.13102 0.37851,0.1298 0.37737,0.1286 0.37627,0.12741 0.18292,0.38399 -0.021,0.66515 -0.0199,0.67534 -0.0187,0.68571 -0.0174,0.69631 -0.0161,0.70711 0.21342,0.38695 0.39186,0.12881 0.39095,0.12759 0.39006,0.1264 0.38918,0.12523 0.38832,0.12406 0.38748,0.1229 0.38665,0.12176 0.38584,0.12064 0.38505,0.11953 0.38427,0.11842 0.38351,0.11734 0.38277,0.11626 0.38204,0.11519 0.38133,0.11414 0.38064,0.1131 0.37996,0.11207 0.37931,0.11105 0.37865,0.11004 0.37803,0.10905 0.37742,0.10806 0.37682,0.10708 0.37625,0.10611 0.37568,0.10516 0.37514,0.1042 0.3746,0.10328 0.3741,0.10234 0.37359,0.10142 0.37311,0.10051 0.37265,0.0996 0.3722,0.0987 0.37176,0.0978 0.37135,0.0969 0.37095,0.0961 0.37056,0.0952 0.37019,0.0944 0.36983,0.0935 0.3695,0.0927 0.36918,0.0919 0.36888,0.091 0.36858,0.0902 0.36831,0.0894 0.36805,0.0886 0.36781,0.0878 0.36758,0.087 0.36737,0.0862 0.36717,0.0855 0.367,0.0847 0.36684,0.0839 0.36668,0.0832 0.36656,0.0824 0.36644,0.0817 0.36634,0.0809 0.36626,0.0802 0.36618,0.0794 0.36614,0.0787 0.3661,0.078 0.36608,0.0773 0.36607,0.0765 1.26399,-3.71664 0.34241,0.0689 0.34243,0.0683 0.34245,0.0677 0.34249,0.0671 0.34255,0.0666 0.34261,0.066 0.34271,0.0654 0.34281,0.0649 0.34293,0.0643 0.34307,0.0637 0.34323,0.0632 0.34339,0.0626 0.34359,0.0621 0.34378,0.0615 0.34401,0.061 0.34424,0.0604 0.3445,0.0599 0.34477,0.0593 0.34505,0.0588 0.34536,0.0583 0.34568,0.0577 0.34602,0.0572 0.34637,0.0567 0.34674,0.0561 0.34713,0.0556 0.34754,0.0551 0.34796,0.0545 0.3484,0.054 0.34886,0.0535 0.34933,0.053 0.34982,0.0524 0.35033,0.0519 0.35086,0.0514 0.35141,0.0509 0.35197,0.0503 0.35254,0.0498 0.35315,0.0493 0.35376,0.0488 0.3544,0.0482 0.35505,0.0477 0.35571,0.0472 0.35641,0.0466 0.35712,0.0461 0.35784,0.0456 0.35858,0.0451 0.35935,0.0445 0.36013,0.044 0.36093,0.0435 0.67498,4.18935 0.38397,-0.0166 0.38409,-0.0174 0.38423,-0.0182 0.38437,-0.0189 0.38454,-0.0197 0.38473,-0.0205 0.38493,-0.0213 0.38514,-0.022 0.38537,-0.0228 0.38562,-0.0236 0.38589,-0.0244 0.38617,-0.0251 0.38646,-0.0259 9.06501,52.62234 0.7063,-0.14989 0.70527,-0.1536 0.70423,-0.1573 0.70319,-0.16099 0.70211,-0.16468 0.70104,-0.16837 0.69994,-0.17203 0.69884,-0.17571 0.69771,-0.17936 0.69658,-0.18302 0.69543,-0.18667 0.69427,-0.1903 0.69309,-0.19394 0.6919,-0.19756 0.6907,-0.20119 0.68948,-0.2048 0.68824,-0.2084 0.687,-0.212 0.68574,-0.2156 0.68447,-0.21918 0.68318,-0.22276 0.68189,-0.22634 0.68057,-0.2299 0.73749,-0.0542 0.93893,0.54572 0.94845,0.54198 0.74321,-0.0829 0.68625,-0.25044 0.76437,-0.0332 0.96868,0.51504 0.68831,-0.26337 0.68681,-0.26711 0.6853,-0.27083 0.68376,-0.27455 0.68223,-0.27826 0.95298,0.38137 1.02079,0.52031 0.71914,-0.21697 1.25649,1.02216 0.64662,-0.40804 0.70828,-0.26686 0.70705,-0.27095 0.83554,0.005 0.51558,-0.68521 0.69817,-0.29178 0.72947,-0.22846 0.66283,-0.36662 0.88736,0.0819 1.16279,0.60947 0.69809,-0.31783 0.69649,-0.32194 0.23568,-1.18672 0.66069,-0.37727 0.65843,-0.38096 0.68967,-0.32452 1.12,0.4341 -1.74135,-4.56939 0.2428,-1.04525 0.63353,-0.36529 0.63158,-0.36873 0.62962,-0.37217 0.62765,-0.37559 0.62565,-0.37902 0.62365,-0.38242 0.62162,-0.38582 0.61959,-0.38922 0.61754,-0.39261 0.61547,-0.39599 0.6134,-0.39936 0.61129,-0.40272 0.60919,-0.40608 0.60706,-0.40942 0.60491,-0.41277 0.60276,-0.41609 0.60059,-0.41942 0.59841,-0.42274 0.5962,-0.42604 0.59399,-0.42934 0.59175,-0.43264 0.58951,-0.43591 0.58725,-0.43919 0.58497,-0.44246 0.58268,-0.44572 0.58037,-0.44896 0.57804,-0.45221 0.57571,-0.45544 0.57336,-0.45867 0.57099,-0.46188 0.5686,-0.46509 0.56621,-0.46829 0.56379,-0.47148 0.56136,-0.47466 0.55891,-0.47784 0.55645,-0.481 0.55398,-0.48416 0.55149,-0.48731 0.54898,-0.49044 0.54645,-0.49358 0.54392,-0.49669 0.54136,-0.49981 0.5388,-0.50291 0.5362,-0.506 0.53361,-0.50909 0.53099,-0.51216 0.52836,-0.51523 0.52571,-0.51829 5.47643,3.95753 -2.00398,-2.83447 0.36932,-0.68547 0.36472,-0.68653 0.36012,-0.68758 0.35554,-0.68857 0.45399,-0.60322 0.51422,-0.55276 0.51131,-0.55585 0.50836,-0.55893 0.50541,-0.56201 0.50244,-0.56506 0.49945,-0.56812 0.49644,-0.57116 0.49341,-0.57418 0.49037,-0.5772 0.48731,-0.5802 0.48423,-0.58319 0.48113,-0.58617 0.47801,-0.58913 0.47489,-0.59209 0.47173,-0.59503 0.46856,-0.59795 0.46538,-0.60087 0.46217,-0.60377 -21.41411,-14.87641 -0.10943,-0.77805 -0.11235,-0.77228 -0.11517,-0.7665 -0.11793,-0.76075 -0.12058,-0.75501 -0.12316,-0.74931 -0.12566,-0.74361 -0.12809,-0.73794 -0.13042,-0.7323 -0.13268,-0.72668 -0.13489,-0.72108 -0.137,-0.71553 -0.13905,-0.70999 -0.14103,-0.7045 -0.14295,-0.69903 -0.14479,-0.69359 -0.14658,-0.68819 -0.1483,-0.68283 -0.14997,-0.6775 -0.15157,-0.67221 -0.15311,-0.66695 -0.1546,-0.66175 -0.15604,-0.65657 -0.15742,-0.65143 -0.15875,-0.64634 -0.16003,-0.64129 -0.16127,-0.63628 -0.16244,-0.63131 -0.16359,-0.62638 -0.16467,-0.6215 -0.16573,-0.61667 -0.16674,-0.61186 -0.1677,-0.60712 -0.16862,-0.60241 -0.16952,-0.59775 -0.17037,-0.59313 -0.17118,-0.58856 0.34065,-0.4031 0.34125,-0.40539 0.34119,-0.40793 0.34113,-0.41049 0.34106,-0.41309 0.34099,-0.4157 0.34091,-0.41835 0.34083,-0.42101 0.34073,-0.42371 0.34064,-0.42643 0.34053,-0.42918 0.34042,-0.43196 0.34029,-0.43476 0.34017,-0.43759 0.34002,-0.44045 0.33987,-0.44333 0.33972,-0.44624 0.33954,-0.44918 0.33936,-0.45215 0.33917,-0.45515 0.33897,-0.45817 0.33875,-0.46123 0.33851,-0.4643 0.33828,-0.46741 0.33801,-0.47055 0.33775,-0.47372 0.33746,-0.47691 0.33715,-0.48013 0.33684,-0.48339 0.33649,-0.48667 0.33615,-0.48998 0.33577,-0.49332 0.33539,-0.49669 0.33497,-0.50008 0.33455,-0.50351 0.3341,-0.50697 0.33362,-0.51045 0.33314,-0.51397 0.33262,-0.51751 0.33208,-0.52108 0.33152,-0.52469 0.33093,-0.52831 0.33032,-0.53198 0.32968,-0.53566 0.32902,-0.53938 0.32833,-0.54313 0.3276,-0.5469 0.32686,-0.5507 0.32608,-0.55453 0.32526,-0.5584 0.32443,-0.56228 0.32355,-0.56619 0.32265,-0.57014 0.32171,-0.57411 0.32073,-0.57811 H 369.216 v 0 l -0.003,0.83601 -0.008,0.83598 -0.0131,0.83591 -0.0184,0.83581 -0.0236,0.83568 -0.0289,0.83551 -0.0341,0.83532 -0.0394,0.83509 -0.0446,0.83482 -0.0499,0.83452 -0.0551,0.8342 -0.0604,0.83383 -0.0656,0.83344 -0.0708,0.83301 -0.0761,0.83255 -0.0813,0.83205 -0.0865,0.83152 -0.0917,0.83097 -0.097,0.83037 -0.10218,0.82975 -0.10738,0.82909 -0.11259,0.82839 -0.1178,0.82768 -0.12299,0.82692 -0.12819,0.82612 -0.13338,0.82531 -0.13855,0.82445 -0.14374,0.82357 -0.14891,0.82264 -0.15407,0.8217 -0.15923,0.82071 -0.16439,0.81969 -0.16953,0.81864 -0.17467,0.81757 -0.17981,0.81645 -0.18493,0.8153 -0.19006,0.81413 -0.19516,0.81291 -0.20027,0.81167 -0.20536,0.8104 -0.21045,0.80909 -0.21553,0.80776 -0.2206,0.80638 -0.22567,0.80498 -0.23071,0.80355 -0.23577,0.80208 -0.24079,0.80059 -0.24582,0.79905 -0.25084,0.7975 -0.25584,0.7959 -0.26084,0.79429 -0.26583,0.79262 -0.2708,0.79094 -0.27576,0.78923 -0.28072,0.78747 -0.28566,0.7857 -0.29059,0.78389 -0.29551,0.78204 -0.30042,0.78017 -0.30531,0.77827 -0.3102,0.77634 -0.31507,0.77437 -0.31993,0.77237 -0.32477,0.77035 -0.32961,0.7683 -0.33443,0.76621 -0.33924,0.76409 -0.34403,0.76195 -0.34881,0.75977 -0.35358,0.75756 -0.35833,0.75533 -0.36308,0.75305 -0.36779,0.75077 -0.37251,0.74844 -0.3772,0.74608 -0.38188,0.7437 -0.38654,0.74128 -0.3912,0.73884 -0.39583,0.73637 -0.40045,0.73387 -0.40505,0.73133 -0.40964,0.72878 -0.41421,0.72619 -0.41877,0.72357 -0.4233,0.72092 -0.42782,0.71826 -0.43233,0.71555 -0.43682,0.71282 -0.44128,0.71006 -0.44574,0.70727 -0.45018,0.70446 -0.45459,0.70162 -0.45899,0.69874 -0.46337,0.69585 -0.46774,0.69293 -0.47208,0.68997 -0.4764,0.68699 -0.48071,0.68398 -0.48501,0.68095 -0.48926,0.67789 -0.49352,0.67481 -0.49775,0.67168 -0.50196,0.66855 -0.50615,0.66538 -0.51032,0.66219 -0.51448,0.65897 -0.5186,0.65572 -0.52271,0.65245 -0.5268,0.64915 -0.53087,0.64584 -0.53492,0.64248 -0.53894,0.63911 -0.54295,0.63571 -0.54693,0.63228 -0.55089,0.62884 -0.55484,0.62537 -0.55875,0.62186 -0.56265,0.61834 -0.56652,0.6148 -0.57037,0.61122 -0.5742,0.60763 -0.57801,0.604 -0.5818,0.60037 -0.58555,0.59669 -0.58929,0.59301 -0.59301,0.58929 -0.59669,0.58555 -0.60037,0.5818 -0.604,0.57801 -0.60763,0.5742 -0.61122,0.57037 -0.6148,0.56652 -0.61834,0.56265 -0.62186,0.55875 -0.62537,0.55484 -0.62884,0.55089 -0.63228,0.54693 -0.63571,0.54295 -0.63911,0.53894 -0.64248,0.53492 -0.64584,0.53087 -0.64915,0.5268 -0.65245,0.52271 -0.65572,0.5186 -0.65897,0.51447 -0.66219,0.51033 -0.66538,0.50615 -0.66854,0.50196 -0.67169,0.49775 -0.67481,0.49352 -0.67789,0.48926 -0.68095,0.485 -0.68398,0.48072 -0.68699,0.4764 -0.68997,0.47208 -0.69293,0.46774 -0.69585,0.46337 -0.69874,0.45899 -0.70162,0.45459 -0.70446,0.45018 -0.70727,0.44574 -0.71006,0.44128 -0.71282,0.43682 -0.71555,0.43233 -0.71826,0.42782 -0.72092,0.4233 -0.72357,0.41877 -0.72619,0.41421 -0.72878,0.40964 -0.73133,0.40505 -0.73387,0.40045 -0.73637,0.39583 -0.73884,0.3912 -0.74128,0.38654 -0.7437,0.38188 -0.74608,0.3772 -0.74844,0.37251 -0.75077,0.3678 -0.75305,0.36307 -0.75533,0.35833 -0.75756,0.35358 -0.75977,0.34881 -0.76195,0.34403 -0.76409,0.33924 -0.76621,0.33443 -0.76829,0.32961 -0.77036,0.32477 -0.77237,0.31993 -0.77437,0.31507 -0.77634,0.3102 -0.77827,0.30531 -0.78017,0.30042 -0.78204,0.29551 -0.78389,0.29059 -0.7857,0.28566 -0.78747,0.28072 -0.78923,0.27576 -0.79094,0.2708 -0.79262,0.26583 -0.79429,0.26084 -0.7959,0.25584 -0.7975,0.25084 -0.79905,0.24582 -0.80059,0.24079 -0.80208,0.23577 -0.80355,0.23071 -0.80498,0.22567 -0.80638,0.2206 -0.80776,0.21553 -0.80909,0.21045 -0.8104,0.20536 -0.81167,0.20027 -0.81291,0.19516 -0.81413,0.19006 -0.8153,0.18493 -0.81645,0.17981 -0.81756,0.17467 -0.81865,0.16953 -0.81969,0.16439 -0.82071,0.15923 -0.8217,0.15407 -0.82264,0.14891 -0.82357,0.14374 -0.82445,0.13855 -0.82531,0.13338 -0.82612,0.12819 -0.82692,0.12299 -0.82768,0.1178 -0.82839,0.11259 -0.82909,0.10738 -0.82975,0.10218 -0.83037,0.097 -0.83097,0.0917 -0.83152,0.0865 -0.83205,0.0813 -0.83255,0.0761 -0.83301,0.0708 -0.83344,0.0656 -0.83383,0.0603 -0.8342,0.0551 -0.83452,0.0499 -0.83482,0.0446 -0.83509,0.0394 -0.83532,0.0341 -0.83551,0.0289 -0.83568,0.0236 -0.83581,0.0184 -0.83591,0.0131 -0.83598,0.008 -0.83601,0.003 -0.83601,-0.003 -0.83598,-0.008 -0.83591,-0.0131 -0.83581,-0.0184 -0.83568,-0.0236 -0.83552,-0.0289 -0.83531,-0.0341 -0.83509,-0.0394 -0.83482,-0.0446 -0.83453,-0.0499 -0.83419,-0.0551 -0.83383,-0.0603 -0.83344,-0.0656 -0.83301,-0.0708 -0.83255,-0.0761 -0.83205,-0.0813 -0.83152,-0.0865 -0.83097,-0.0917 -0.83037,-0.097 -0.82975,-0.10218 -0.82909,-0.10738 -0.8284,-0.11259 -0.82767,-0.1178 -0.82692,-0.12299 -0.82612,-0.12819 -0.82531,-0.13338 -0.82445,-0.13855 -0.82357,-0.14374 -0.82264,-0.14891 -0.8217,-0.15407 -0.82071,-0.15923 -0.81969,-0.16439 -0.81865,-0.16953 -0.81756,-0.17467 -0.81645,-0.17981 -0.8153,-0.18493 -0.81413,-0.19006 -0.81291,-0.19516 -0.81167,-0.20027 -0.8104,-0.20536 -0.80909,-0.21045 -0.80776,-0.21553 -0.80638,-0.2206 -0.80498,-0.22567 -0.80355,-0.23071 -0.80208,-0.23577 -0.80059,-0.24079 -0.79906,-0.24582 -0.79749,-0.25084 -0.79591,-0.25584 -0.79428,-0.26084 -0.79262,-0.26583 -0.79094,-0.2708 -0.78923,-0.27576 -0.78747,-0.28072 -0.7857,-0.28566 -0.78389,-0.29059 -0.78204,-0.29551 -0.78017,-0.30042 -0.77827,-0.30531 -0.77634,-0.3102 -0.77437,-0.31507 -0.77237,-0.31993 -0.77036,-0.32477 -0.76829,-0.32961 -0.76621,-0.33443 -0.76409,-0.33924 -0.76195,-0.34403 -0.75977,-0.34881 -0.75756,-0.35358 -0.75533,-0.35833 -0.75306,-0.36307 -0.75076,-0.3678 -0.74844,-0.37251 -0.74608,-0.3772 -0.7437,-0.38188 -0.74128,-0.38654 -0.73884,-0.3912 -0.73637,-0.39583 -0.73387,-0.40045 -0.73133,-0.40505 -0.72878,-0.40964 -0.72619,-0.41421 -0.72357,-0.41877 -0.72093,-0.4233 -0.71825,-0.42782 -0.71555,-0.43233 -0.71282,-0.43682 -0.71006,-0.44128 -0.70727,-0.44574 -0.70446,-0.45018 -0.70162,-0.45459 -0.69874,-0.45899 -0.69585,-0.46337 -0.69293,-0.46774 -0.68997,-0.47208 -0.68699,-0.4764 -0.68398,-0.48072 -0.68095,-0.485 -0.67789,-0.48926 -0.67481,-0.49352 -0.67169,-0.49775 -0.66854,-0.50196 -0.66538,-0.50615 -0.66219,-0.51033 -0.65897,-0.51447 -0.65572,-0.5186 -0.65245,-0.52271 -0.64915,-0.5268 -0.64584,-0.53087 -0.64248,-0.53492 -0.63911,-0.53894 -0.63571,-0.54295 -0.63228,-0.54693 -0.62884,-0.55089 -0.62537,-0.55484 -0.62186,-0.55875 -0.61834,-0.56265 -0.6148,-0.56652 -0.61122,-0.57037 -0.60763,-0.5742 -0.604,-0.57801 -0.60037,-0.5818 -0.59669,-0.58555 -0.59301,-0.58929 -0.58929,-0.59301 -0.58556,-0.59669 -0.58179,-0.60037 -0.57801,-0.604 -0.5742,-0.60763 -0.57037,-0.61122 -0.56652,-0.6148 -0.56265,-0.61834 -0.55876,-0.62186 -0.55483,-0.62537 -0.55089,-0.62884 -0.54693,-0.63228 -0.54295,-0.63571 -0.53894,-0.63911 -0.53492,-0.64248 -0.53087,-0.64584 -0.5268,-0.64915 -0.52271,-0.65245 -0.5186,-0.65572 -0.51448,-0.65897 -0.51032,-0.66219 -0.50615,-0.66538 -0.50196,-0.66855 -0.49775,-0.67168 -0.49352,-0.67481 -0.48927,-0.67789 -0.48499,-0.68095 -0.48072,-0.68398 -0.4764,-0.68699 -0.47208,-0.68997 -0.46774,-0.69293 -0.46337,-0.69585 -0.45899,-0.69874 -0.45459,-0.70162 -0.45018,-0.70446 -0.44574,-0.70727 -0.44128,-0.71006 -0.43682,-0.71282 -0.43233,-0.71555 -0.42782,-0.71826 -0.4233,-0.72092 -0.41877,-0.72357 -0.41421,-0.72619 -0.40964,-0.72878 -0.40505,-0.73133 -0.40045,-0.73387 -0.39583,-0.73637 -0.3912,-0.73884 -0.38654,-0.74128 -0.38188,-0.7437 -0.37721,-0.74608 -0.3725,-0.74844 -0.36779,-0.75077 -0.36308,-0.75305 -0.35833,-0.75533 -0.35358,-0.75756 -0.34881,-0.75977 -0.34403,-0.76195 -0.33924,-0.76409 -0.33443,-0.76621 -0.32961,-0.7683 -0.32477,-0.77035 -0.31993,-0.77237 -0.31507,-0.77437 -0.3102,-0.77634 -0.30531,-0.77827 -0.30042,-0.78017 -0.29551,-0.78204 -0.29059,-0.78389 -0.28566,-0.7857 -0.28072,-0.78747 -0.27576,-0.78923 -0.2708,-0.79094 -0.26583,-0.79262 -0.26084,-0.79429 -0.25584,-0.7959 -0.25084,-0.7975 -0.24582,-0.79905 -0.2408,-0.80059 -0.23576,-0.80208 -0.23071,-0.80355 -0.22567,-0.80498 -0.2206,-0.80638 -0.21553,-0.80776 -0.21045,-0.80909 -0.20536,-0.8104 -0.20027,-0.81167 -0.19517,-0.81291 -0.19005,-0.81413 -0.18493,-0.8153 -0.17981,-0.81645 -0.17467,-0.81757 -0.16953,-0.81864 -0.16439,-0.81969 -0.15923,-0.82071 -0.15408,-0.8217 -0.1489,-0.82264 -0.14374,-0.82357 -0.13856,-0.82445 -0.13337,-0.82531 -0.12819,-0.82612 -0.12299,-0.82692 -0.11779,-0.82768 -0.1126,-0.82839 -0.10738,-0.82909 -0.10218,-0.82975 -0.097,-0.83037 -0.0917,-0.83097 -0.0865,-0.83152 -0.0813,-0.83205 -0.0761,-0.83255 -0.0708,-0.83301 -0.0656,-0.83344 -0.0603,-0.83383 -0.0551,-0.8342 -0.0499,-0.83452 -0.0446,-0.83482 -0.0394,-0.83509 -0.0341,-0.83532 -0.0289,-0.83551 -0.0236,-0.83568 -0.0184,-0.83581 -0.0131,-0.83591 -0.008,-0.83598 -0.003,-0.83601 0.003,-0.83601 0.008,-0.83598 0.0131,-0.83591 0.0184,-0.83581 0.0236,-0.83568 0.0289,-0.83552 0.0341,-0.83531 0.0394,-0.83509 0.0446,-0.83482 0.0499,-0.83453 0.0551,-0.83419 0.0603,-0.83383 0.0656,-0.83344 0.0708,-0.83301 0.0761,-0.83255 0.0813,-0.83205 0.0865,-0.83152 0.0917,-0.83097 0.097,-0.83037 0.10218,-0.82975 0.10738,-0.82909 0.1126,-0.8284 0.11779,-0.82767 0.12299,-0.82692 0.12819,-0.82612 0.13337,-0.82531 0.13856,-0.82445 0.14374,-0.82357 0.1489,-0.82264 0.15408,-0.8217 0.15923,-0.82071 0.16439,-0.81969 0.16953,-0.81865 0.17467,-0.81756 0.17981,-0.81645 0.18493,-0.8153 0.19005,-0.81413 0.19517,-0.81291 0.20027,-0.81167 0.20536,-0.8104 0.21045,-0.80909 0.21553,-0.80776 0.2206,-0.80638 0.22567,-0.80498 0.23071,-0.80355 0.23576,-0.80208 0.2408,-0.80059 0.24582,-0.79905 0.25084,-0.7975 0.25584,-0.79591 0.26084,-0.79428 0.26583,-0.79262 0.2708,-0.79094 0.27576,-0.78923 0.28072,-0.78747 0.28566,-0.7857 0.29059,-0.78389 0.29551,-0.78204 0.30042,-0.78017 0.30531,-0.77827 0.3102,-0.77634 0.31507,-0.77437 0.31993,-0.77237 0.32477,-0.77036 0.32961,-0.76829 0.33443,-0.76621 0.33924,-0.76409 0.34403,-0.76195 0.34881,-0.75977 0.35358,-0.75756 0.35833,-0.75533 0.36308,-0.75305 0.36779,-0.75077 0.3725,-0.74844 0.37721,-0.74608 0.38188,-0.7437 0.38654,-0.74128 0.3912,-0.73884 0.39583,-0.73637 0.40045,-0.73387 0.40505,-0.73133 0.40964,-0.72878 0.41421,-0.72619 0.41877,-0.72357 0.4233,-0.72092 0.42782,-0.71826 0.43233,-0.71555 0.43682,-0.71282 0.44128,-0.71006 0.44574,-0.70727 0.45018,-0.70446 0.45459,-0.70162 0.45899,-0.69874 0.46337,-0.69585 0.46774,-0.692927 0.47208,-0.689971 0.4764,-0.686992 0.48072,-0.683985 0.48499,-0.68095 0.48927,-0.677891 0.49352,-0.674802 0.49775,-0.671688 0.50196,-0.668548 0.50615,-0.665381 0.51032,-0.662187 0.51448,-0.658968 0.5186,-0.655722 0.52271,-0.652451 0.5268,-0.649153 0.53087,-0.645831 0.53492,-0.642483 0.53894,-0.639109 0.54295,-0.63571 0.54693,-0.632286 0.55089,-0.628838 0.55483,-0.625363 0.55876,-0.621865 0.56265,-0.618342 0.56652,-0.614795 0.57037,-0.611223 0.5742,-0.607627 0.57801,-0.604007 0.58179,-0.600364 0.58556,-0.596696 0.58929,-0.593006 0.59301,-0.589291 0.59669,-0.585554 0.60037,-0.581793 0.604,-0.578009 0.60763,-0.574203 0.61122,-0.570373 0.6148,-0.566522 0.61834,-0.562648 0.62186,-0.558752 0.62537,-0.554833 0.62884,-0.550894 0.63228,-0.546931 0.63571,-0.542948 0.63911,-0.538943 0.64248,-0.534916 0.64584,-0.530869 0.64915,-0.526801 0.65245,-0.522712 0.65572,-0.518602 0.65897,-0.514471 0.66219,-0.510321 0.66538,-0.506151 0.66854,-0.50196 0.67169,-0.497749 0.67481,-0.493519 0.67789,-0.48927 0.68095,-0.485 0.68398,-0.480713 0.68699,-0.476405 0.68997,-0.47208 0.69293,-0.467735 0.69585,-0.463372 0.69874,-0.458991 0.70162,-0.454591 0.70446,-0.450174 0.70727,-0.445739 0.71006,-0.441287 0.71282,-0.436816 0.71555,-0.432329 0.71825,-0.427824 0.72093,-0.423303 0.72357,-0.418765 0.72619,-0.414211 0.72878,-0.409639 0.73133,-0.405053 0.73387,-0.400449 0.73637,-0.39583 0.73884,-0.391196 0.74128,-0.386546 0.7437,-0.381881 0.74608,-0.377201 0.74844,-0.372505 0.75076,-0.367795 0.75306,-0.363071 0.75533,-0.358332 0.75756,-0.35358 0.75977,-0.348812 0.76195,-0.344032 0.76409,-0.339237 0.76621,-0.33443 0.76829,-0.32961 0.77036,-0.324775 0.77237,-0.319929 0.77437,-0.315069 0.77634,-0.310198 0.77827,-0.305314 0.78017,-0.300418 0.78204,-0.29551 0.78389,-0.29059 0.7857,-0.28566 0.78747,-0.280717 0.78923,-0.275764 0.79094,-0.270799 0.79262,-0.265825 0.79428,-0.260839 0.79591,-0.255843 0.79749,-0.250838 0.79906,-0.245822 0.80059,-0.240796 0.80208,-0.235762 0.80355,-0.230717 0.80498,-0.225664 0.80638,-0.220601 0.80776,-0.215531 0.80909,-0.210451 0.8104,-0.205363 0.81167,-0.200268 0.81291,-0.195163 0.81413,-0.190053 0.8153,-0.184933 0.81645,-0.179806 0.81756,-0.174674 0.81865,-0.169533 0.81969,-0.164386 0.82071,-0.159232 0.8217,-0.154073 0.82264,-0.148907 0.82357,-0.143735 0.82445,-0.138558 0.82531,-0.133375 0.82612,-0.128187 0.82692,-0.122993 0.82767,-0.117795 0.8284,-0.112593 0.82909,-0.107386 0.82975,-0.102174 0.83037,-0.09696 0.83097,-0.09174 0.83152,-0.08652 0.83205,-0.08129 0.83255,-0.07606 0.83301,-0.07083 0.83344,-0.06559 0.83383,-0.06036 0.83419,-0.05511 0.83453,-0.04987 0.83482,-0.04463 0.83509,-0.03938 0.83531,-0.03413 0.83552,-0.02889 0.83568,-0.02363 0.83581,-0.01838 0.83591,-0.01313 0.83598,-0.0079 0.83601,-0.0026 0.83601,0.0026 0.83598,0.0079 0.83591,0.01313 0.83581,0.01838 0.83568,0.02363 0.83551,0.02889 0.83532,0.03413 0.83509,0.03938 0.83482,0.04463 0.83452,0.04987 0.8342,0.05511 0.83383,0.06036 0.83344,0.06559 0.83301,0.07083 0.83255,0.07606 0.83205,0.08129 0.83152,0.08652 0.83097,0.09174 0.83037,0.09696 0.82975,0.102174 0.82909,0.107386 0.82839,0.112593 0.82768,0.117795 0.82692,0.122993 0.82612,0.128187 0.82531,0.133375 0.82445,0.138558 0.82357,0.143735 0.82264,0.148907 0.8217,0.154073 0.82071,0.159232 0.81969,0.164386 0.81865,0.169533 0.81756,0.174674 0.81645,0.179806 0.8153,0.184933 0.81413,0.190053 0.81291,0.195163 0.81167,0.200268 0.8104,0.205363 0.80909,0.210451 0.80776,0.215531 0.80638,0.220601 0.80498,0.225664 0.80355,0.230717 0.80208,0.235762 0.80059,0.240796 0.79905,0.245822 0.7975,0.250838 0.7959,0.255843 0.79429,0.260839 0.79262,0.265825 0.79094,0.270799 0.78923,0.275764 0.78747,0.280717 0.7857,0.28566 0.78389,0.29059 0.78204,0.29551 0.78017,0.300418 0.77827,0.305314 0.77634,0.310198 0.77437,0.315069 0.77237,0.319929 0.77036,0.324775 0.76829,0.32961 0.76621,0.33443 0.76409,0.339237 0.76195,0.344032 0.75977,0.348812 0.75756,0.35358 0.75533,0.358332 0.75305,0.363071 0.75077,0.367795 0.74844,0.372505 0.74608,0.377201 0.7437,0.381881 0.74128,0.386546 0.73884,0.391196 0.73637,0.39583 0.73387,0.400449 0.73133,0.405053 0.72878,0.409639 0.72619,0.414211 0.72357,0.418765 0.72092,0.423303 0.71826,0.427824 0.71555,0.432329 0.71282,0.436816 0.71006,0.441287 0.70727,0.445739 0.70446,0.450174 0.70162,0.454591 0.69874,0.458991 0.69585,0.463372 0.69293,0.467735 0.68997,0.47208 0.68699,0.476405 0.68398,0.480713 0.68095,0.485 0.67789,0.48927 0.67481,0.493519 0.67169,0.497749 0.66854,0.50196 0.66538,0.506151 0.66219,0.510321 0.65897,0.514471 0.65572,0.518602 0.65245,0.522712 0.64915,0.526801 0.64584,0.530869 0.64248,0.534916 0.63911,0.538943 0.63571,0.542948 0.63228,0.546931 0.62884,0.550894 0.62537,0.554833 0.62186,0.558752 0.61834,0.562648 0.6148,0.566522 0.61122,0.570373 0.60763,0.574203 0.604,0.578009 0.60037,0.581793 0.59669,0.585554 0.59301,0.589291 0.58929,0.593006 0.58555,0.596696 0.5818,0.600364 0.57801,0.604007 0.5742,0.607627 0.57037,0.611223 0.56652,0.614795 0.56265,0.618342 0.55875,0.621865 0.55484,0.625363 0.55089,0.628838 0.54693,0.632286 0.54295,0.63571 0.53894,0.639109 0.53492,0.642483 0.53087,0.645831 0.5268,0.649153 0.52271,0.652451 0.5186,0.655722 0.51448,0.658968 0.51032,0.662187 0.50615,0.665381 0.50196,0.668548 0.49775,0.671688 0.49352,0.674802 0.48926,0.677891 0.48501,0.68095 0.48071,0.683985 0.4764,0.686992 0.47208,0.689971 0.46774,0.692927 0.46337,0.69585 0.45899,0.69874 0.45459,0.70162 0.45018,0.70446 0.44574,0.70727 0.44128,0.71006 0.43682,0.71282 0.43233,0.71555 0.42782,0.71826 0.4233,0.72092 0.41877,0.72357 0.41421,0.72619 0.40964,0.72878 0.40505,0.73133 0.40045,0.73387 0.39583,0.73637 0.3912,0.73884 0.38654,0.74128 0.38188,0.7437 0.3772,0.74608 0.37251,0.74844 0.36779,0.75077 0.36308,0.75305 0.35833,0.75533 0.35358,0.75756 0.34881,0.75977 0.34403,0.76195 0.33924,0.76409 0.33443,0.76621 0.32961,0.76829 0.32477,0.77036 0.31993,0.77237 0.31507,0.77437 0.3102,0.77634 0.30531,0.77827 0.30042,0.78017 0.29551,0.78204 0.29059,0.78389 0.28566,0.7857 0.28072,0.78747 0.27576,0.78923 0.2708,0.79094 0.26583,0.79262 0.26084,0.79428 0.25584,0.79591 0.25084,0.7975 0.24582,0.79905 0.24079,0.80059 0.23577,0.80208 0.23071,0.80355 0.22567,0.80498 0.2206,0.80638 0.21553,0.80776 0.21045,0.80909 0.20536,0.8104 0.20027,0.81167 0.19516,0.81291 0.19006,0.81413 0.18493,0.8153 0.17981,0.81645 0.17467,0.81756 0.16953,0.81865 0.16439,0.81969 0.15923,0.82071 0.15407,0.8217 0.14891,0.82264 0.14374,0.82357 0.13855,0.82445 0.13338,0.82531 0.12819,0.82612 0.12299,0.82692 0.1178,0.82767 0.11259,0.8284 0.10738,0.82909 0.10218,0.82975 0.097,0.83037 0.0917,0.83097 0.0865,0.83152 0.0813,0.83205 0.0761,0.83255 0.0708,0.83301 0.0656,0.83344 0.0604,0.83383 0.0551,0.83419 0.0499,0.83453 0.0446,0.83482 0.0394,0.83509 0.0341,0.83531 0.0289,0.83552 0.0236,0.83568 0.0184,0.83581 0.0131,0.83591 0.008,0.83598 z"
       clip-path="url(#p8e4ffc5d42)"
       style="fill:#1f77b4;fill-opacity:0.2"
       id="path3860" />
  </g>
  <g
     id="line2d_1"
     style="opacity:0.3"
     transform="translate(-78.158687,-22.8095)">
    <path
       d="M 236.16,174.528 H 369.216"
       clip-path="url(#p8e4ffc5d42)"
       style="fill:none;stroke:#b0b0b0;stroke-width:0.8;stroke-linecap:square"
       id="path3863" />
  </g>
  <g
     id="text_1"
     style="fill:#666666"
     transform="translate(-78.158687,-22.8095)">
    <!-- 0° -->
    <g
       transform="matrix(0.1,0,0,-0.1,377.53475,177.28737)"
       id="g3874"
       style="fill:#666666">
      <defs
         id="defs3868">
        <path
           id="DejaVuSans-30"
           d="m 2034,4250 q -487,0 -733,-480 -245,-479 -245,-1442 0,-959 245,-1439 246,-480 733,-480 491,0 736,480 246,480 246,1439 0,963 -246,1442 -245,480 -736,480 z m 0,500 q 785,0 1199,-621 414,-620 414,-1801 0,-1178 -414,-1799 -414,-620 -1199,-620 -784,0 -1198,620 -414,621 -414,1799 0,1181 414,1801 414,621 1198,621 z"
           transform="scale(0.015625)" />
        <path
           id="DejaVuSans-b0"
           d="m 1600,4347 q -250,0 -422,-174 -172,-173 -172,-423 0,-247 172,-417 172,-170 422,-170 250,0 422,170 172,170 172,417 0,247 -174,422 -173,175 -420,175 z m 0,403 q 200,0 384,-77 185,-76 319,-220 144,-140 216,-319 72,-178 72,-384 0,-412 -289,-698 -289,-286 -708,-286 -422,0 -704,281 -281,281 -281,703 0,419 287,709 288,291 704,291 z"
           transform="scale(0.015625)" />
      </defs>
      <use
         xlink:href="#DejaVuSans-30"
         id="use3870"
         style="fill:#666666" />
      <use
         xlink:href="#DejaVuSans-b0"
         x="63.623047"
         id="use3872"
         style="fill:#666666" />
    </g>
  </g>
  <g
     id="line2d_2"
     style="opacity:0.3"
     transform="translate(-78.158687,-22.8095)">
    <path
       d="M 236.16,174.528 330.2448,80.4432"
       clip-path="url(#p8e4ffc5d42)"
       style="fill:none;stroke:#b0b0b0;stroke-width:0.8;stroke-linecap:square"
       id="path3878" />
  </g>
  <g
     id="text_2"
     style="fill:#666666"
     transform="translate(-78.158687,-22.8095)">
    <!-- 45° -->
    <g
       transform="matrix(0.1,0,0,-0.1,331.28179,73.30308)"
       id="g3891"
       style="fill:#666666">
      <defs
         id="defs3883">
        <path
           id="DejaVuSans-34"
           d="M 2419,4116 825,1625 h 1594 z m -166,550 h 794 V 1625 h 666 V 1100 H 3047 V 0 H 2419 V 1100 H 313 v 609 z"
           transform="scale(0.015625)" />
        <path
           id="DejaVuSans-35"
           d="M 691,4666 H 3169 V 4134 H 1269 V 2991 q 137,47 274,70 138,23 276,23 781,0 1237,-428 457,-428 457,-1159 Q 3513,744 3044,326 2575,-91 1722,-91 1428,-91 1123,-41 819,9 494,109 v 635 q 281,-153 581,-228 300,-75 634,-75 541,0 856,284 316,284 316,772 0,487 -316,771 -315,285 -856,285 -253,0 -505,-56 -251,-56 -513,-175 z"
           transform="scale(0.015625)" />
      </defs>
      <use
         xlink:href="#DejaVuSans-34"
         id="use3885"
         style="fill:#666666" />
      <use
         xlink:href="#DejaVuSans-35"
         x="63.623047"
         id="use3887"
         style="fill:#666666" />
      <use
         xlink:href="#DejaVuSans-b0"
         x="127.24609"
         id="use3889"
         style="fill:#666666" />
    </g>
  </g>
  <g
     id="line2d_3"
     style="opacity:0.3"
     transform="translate(-78.158687,-22.8095)">
    <path
       d="M 236.16,174.528 V 41.472"
       clip-path="url(#p8e4ffc5d42)"
       style="fill:none;stroke:#b0b0b0;stroke-width:0.8;stroke-linecap:square"
       id="path3895" />
  </g>
  <g
     id="text_3"
     style="fill:#666666"
     transform="translate(-78.158687,-22.8095)">
    <!-- 90° -->
    <g
       transform="matrix(0.1,0,0,-0.1,227.2975,30.231375)"
       id="g3907"
       style="fill:#666666">
      <defs
         id="defs3899">
        <path
           id="DejaVuSans-39"
           d="m 703,97 v 575 q 238,-113 481,-172 244,-59 479,-59 625,0 954,420 330,420 377,1277 -181,-269 -460,-413 -278,-144 -615,-144 -700,0 -1108,423 -408,424 -408,1159 0,718 425,1152 425,435 1131,435 810,0 1236,-621 427,-620 427,-1801 Q 3622,1225 3098,567 2575,-91 1691,-91 1453,-91 1209,-44 966,3 703,97 Z m 1256,1978 q 425,0 673,290 249,291 249,798 0,503 -249,795 -248,292 -673,292 -425,0 -673,-292 -248,-292 -248,-795 0,-507 248,-798 248,-290 673,-290 z"
           transform="scale(0.015625)" />
      </defs>
      <use
         xlink:href="#DejaVuSans-39"
         id="use3901"
         style="fill:#666666" />
      <use
         xlink:href="#DejaVuSans-30"
         x="63.623047"
         id="use3903"
         style="fill:#666666" />
      <use
         xlink:href="#DejaVuSans-b0"
         x="127.24609"
         id="use3905"
         style="fill:#666666" />
    </g>
  </g>
  <g
     id="line2d_4"
     style="opacity:0.3"
     transform="translate(-78.158687,-22.8095)">
    <path
       d="M 236.16,174.528 142.0752,80.4432"
       clip-path="url(#p8e4ffc5d42)"
       style="fill:none;stroke:#b0b0b0;stroke-width:0.8;stroke-linecap:square"
       id="path3911" />
  </g>
  <g
     id="text_4"
     style="fill:#666666"
     transform="translate(-78.158687,-22.8095)">
    <!-- 135° -->
    <g
       transform="matrix(0.1,0,0,-0.1,120.13196,73.30308)"
       id="g3926"
       style="fill:#666666">
      <defs
         id="defs3916">
        <path
           id="DejaVuSans-31"
           d="M 794,531 H 1825 V 4091 L 703,3866 v 575 l 1116,225 h 631 V 531 H 3481 V 0 H 794 Z"
           transform="scale(0.015625)" />
        <path
           id="DejaVuSans-33"
           d="m 2597,2516 q 453,-97 707,-404 255,-306 255,-756 0,-690 -475,-1069 -475,-378 -1350,-378 -293,0 -604,58 -311,58 -642,174 v 609 q 262,-153 574,-231 313,-78 654,-78 593,0 904,234 311,234 311,681 0,413 -289,645 -289,233 -804,233 h -544 v 519 h 569 q 465,0 712,186 247,186 247,536 0,359 -255,551 -254,193 -729,193 -260,0 -557,-57 -297,-56 -653,-174 v 562 q 360,100 674,150 314,50 592,50 719,0 1137,-327 419,-326 419,-882 0,-388 -222,-655 -222,-267 -631,-370 z"
           transform="scale(0.015625)" />
      </defs>
      <use
         xlink:href="#DejaVuSans-31"
         id="use3918"
         style="fill:#666666" />
      <use
         xlink:href="#DejaVuSans-33"
         x="63.623047"
         id="use3920"
         style="fill:#666666" />
      <use
         xlink:href="#DejaVuSans-35"
         x="127.24609"
         id="use3922"
         style="fill:#666666" />
      <use
         xlink:href="#DejaVuSans-b0"
         x="190.86914"
         id="use3924"
         style="fill:#666666" />
    </g>
  </g>
  <g
     id="line2d_5"
     style="opacity:0.3"
     transform="translate(-78.158687,-22.8095)">
    <path
       d="M 236.16,174.528 H 103.104"
       clip-path="url(#p8e4ffc5d42)"
       style="fill:none;stroke:#b0b0b0;stroke-width:0.8;stroke-linecap:square"
       id="path3930" />
  </g>
  <g
     id="text_5"
     style="fill:#666666"
     transform="translate(-78.158687,-22.8095)">
    <!-- 180° -->
    <g
       transform="matrix(0.1,0,0,-0.1,77.06025,177.28737)"
       id="g3944"
       style="fill:#666666">
      <defs
         id="defs3934">
        <path
           id="DejaVuSans-38"
           d="m 2034,2216 q -450,0 -708,-241 -257,-241 -257,-662 0,-422 257,-663 258,-241 708,-241 450,0 709,242 260,243 260,662 0,421 -258,662 -257,241 -711,241 z m -631,268 q -406,100 -633,378 -226,279 -226,679 0,559 398,884 399,325 1092,325 697,0 1094,-325 397,-325 397,-884 0,-400 -227,-679 -226,-278 -629,-378 456,-106 710,-416 255,-309 255,-755 Q 3634,634 3220,271 2806,-91 2034,-91 1263,-91 848,271 434,634 434,1313 q 0,446 256,755 257,310 713,416 z m -231,997 q 0,-362 226,-565 227,-203 636,-203 407,0 636,203 230,203 230,565 0,363 -230,566 -229,203 -636,203 -409,0 -636,-203 -226,-203 -226,-566 z"
           transform="scale(0.015625)" />
      </defs>
      <use
         xlink:href="#DejaVuSans-31"
         id="use3936"
         style="fill:#666666" />
      <use
         xlink:href="#DejaVuSans-38"
         x="63.623047"
         id="use3938"
         style="fill:#666666" />
      <use
         xlink:href="#DejaVuSans-30"
         x="127.24609"
         id="use3940"
         style="fill:#666666" />
      <use
         xlink:href="#DejaVuSans-b0"
         x="190.86914"
         id="use3942"
         style="fill:#666666" />
    </g>
  </g>
  <g
     id="line2d_6"
     style="opacity:0.3"
     transform="translate(-78.158687,-22.8095)">
    <path
       d="m 236.16,174.528 -94.0848,94.0848"
       clip-path="url(#p8e4ffc5d42)"
       style="fill:none;stroke:#b0b0b0;stroke-width:0.8;stroke-linecap:square"
       id="path3948" />
  </g>
  <g
     id="text_6"
     style="fill:#666666"
     transform="translate(-78.158687,-22.8095)">
    <!-- 225° -->
    <g
       transform="matrix(0.1,0,0,-0.1,120.13196,281.27167)"
       id="g3962"
       style="fill:#666666">
      <defs
         id="defs3952">
        <path
           id="DejaVuSans-32"
           d="M 1228,531 H 3431 V 0 H 469 v 531 q 359,372 979,998 621,627 780,809 303,340 423,576 121,236 121,464 0,372 -261,606 -261,235 -680,235 -297,0 -627,-103 -329,-103 -704,-313 v 638 q 381,153 712,231 332,78 607,78 725,0 1156,-363 431,-362 431,-968 0,-288 -108,-546 -107,-257 -392,-607 -78,-91 -497,-524 Q 1991,1309 1228,531 Z"
           transform="scale(0.015625)" />
      </defs>
      <use
         xlink:href="#DejaVuSans-32"
         id="use3954"
         style="fill:#666666" />
      <use
         xlink:href="#DejaVuSans-32"
         x="63.623047"
         id="use3956"
         style="fill:#666666" />
      <use
         xlink:href="#DejaVuSans-35"
         x="127.24609"
         id="use3958"
         style="fill:#666666" />
      <use
         xlink:href="#DejaVuSans-b0"
         x="190.86914"
         id="use3960"
         style="fill:#666666" />
    </g>
  </g>
  <g
     id="line2d_7"
     style="opacity:0.3"
     transform="translate(-78.158687,-22.8095)">
    <path
       d="M 236.16,174.528 V 307.584"
       clip-path="url(#p8e4ffc5d42)"
       style="fill:none;stroke:#b0b0b0;stroke-width:0.8;stroke-linecap:square"
       id="path3966" />
  </g>
  <g
     id="text_7"
     style="fill:#666666"
     transform="translate(-78.158687,-22.8095)">
    <!-- 270° -->
    <g
       transform="matrix(0.1,0,0,-0.1,224.11625,324.34337)"
       id="g3980"
       style="fill:#666666">
      <defs
         id="defs3970">
        <path
           id="DejaVuSans-37"
           d="M 525,4666 H 3525 V 4397 L 1831,0 H 1172 L 2766,4134 H 525 Z"
           transform="scale(0.015625)" />
      </defs>
      <use
         xlink:href="#DejaVuSans-32"
         id="use3972"
         style="fill:#666666" />
      <use
         xlink:href="#DejaVuSans-37"
         x="63.623047"
         id="use3974"
         style="fill:#666666" />
      <use
         xlink:href="#DejaVuSans-30"
         x="127.24609"
         id="use3976"
         style="fill:#666666" />
      <use
         xlink:href="#DejaVuSans-b0"
         x="190.86914"
         id="use3978"
         style="fill:#666666" />
    </g>
  </g>
  <g
     id="line2d_8"
     style="opacity:0.3"
     transform="translate(-78.158687,-22.8095)">
    <path
       d="m 236.16,174.528 94.0848,94.0848"
       clip-path="url(#p8e4ffc5d42)"
       style="fill:none;stroke:#b0b0b0;stroke-width:0.8;stroke-linecap:square"
       id="path3984" />
  </g>
  <g
     id="text_8"
     style="fill:#666666"
     transform="translate(-78.158687,-22.8095)">
    <!-- 315° -->
    <g
       transform="matrix(0.1,0,0,-0.1,328.10054,281.27167)"
       id="g3995"
       style="fill:#666666">
      <use
         xlink:href="#DejaVuSans-33"
         id="use3987"
         style="fill:#666666" />
      <use
         xlink:href="#DejaVuSans-31"
         x="63.623047"
         id="use3989"
         style="fill:#666666" />
      <use
         xlink:href="#DejaVuSans-35"
         x="127.24609"
         id="use3991"
         style="fill:#666666" />
      <use
         xlink:href="#DejaVuSans-b0"
         x="190.86914"
         id="use3993"
         style="fill:#666666" />
    </g>
  </g>
  <g
     id="matplotlib.axis_2"
     style="opacity:0.3"
     transform="translate(-78.158687,-22.8095)">
    <g
       id="ytick_1">
      <g
         id="line2d_9">
        <path
           d="m 253.10122,174.528 c 0,-2.2247 -0.43822,-4.42777 -1.28958,-6.48312 -0.85135,-2.05536 -2.09929,-3.92303 -3.67239,-5.49613 -1.5731,-1.5731 -3.44077,-2.82104 -5.49613,-3.67239 -2.05535,-0.85136 -4.25842,-1.28958 -6.48312,-1.28958 -2.2247,0 -4.42777,0.43822 -6.48312,1.28958 -2.05536,0.85135 -3.92303,2.09929 -5.49613,3.67239 -1.5731,1.5731 -2.82104,3.44077 -3.67239,5.49613 -0.85136,2.05535 -1.28958,4.25842 -1.28958,6.48312 0,2.2247 0.43822,4.42777 1.28958,6.48312 0.85135,2.05536 2.09929,3.92303 3.67239,5.49613 1.5731,1.5731 3.44077,2.82104 5.49613,3.67239 2.05535,0.85136 4.25842,1.28958 6.48312,1.28958 2.2247,0 4.42777,-0.43822 6.48312,-1.28958 2.05536,-0.85135 3.92303,-2.09929 5.49613,-3.67239 1.5731,-1.5731 2.82104,-3.44077 3.67239,-5.49613 0.85136,-2.05535 1.28958,-4.25842 1.28958,-6.48312"
           clip-path="url(#p8e4ffc5d42)"
           style="fill:none;stroke:#b0b0b0;stroke-width:0.8;stroke-linecap:square"
           id="path4000" />
      </g>
    </g>
    <g
       id="ytick_2">
      <g
         id="line2d_10">
        <path
           d="m 270.04243,174.528 c 0,-4.4494 -0.87643,-8.85554 -2.57914,-12.96625 -1.70272,-4.11071 -4.19859,-7.84605 -7.34479,-10.99225 -3.1462,-3.1462 -6.88155,-5.64207 -10.99226,-7.34479 -4.1107,-1.70271 -8.51684,-2.57914 -12.96624,-2.57914 -4.4494,0 -8.85554,0.87643 -12.96625,2.57914 -4.11071,1.70272 -7.84605,4.19859 -10.99225,7.34479 -3.1462,3.1462 -5.64207,6.88154 -7.34479,10.99225 -1.70271,4.11071 -2.57914,8.51685 -2.57914,12.96625 0,4.4494 0.87643,8.85554 2.57914,12.96624 1.70272,4.11071 4.19859,7.84606 7.34479,10.99226 3.1462,3.1462 6.88154,5.64207 10.99225,7.34479 4.11071,1.70271 8.51685,2.57914 12.96625,2.57914 4.4494,0 8.85554,-0.87643 12.96624,-2.57914 4.11071,-1.70272 7.84606,-4.19859 10.99226,-7.34479 3.1462,-3.1462 5.64207,-6.88155 7.34479,-10.99226 1.70271,-4.1107 2.57914,-8.51684 2.57914,-12.96624"
           clip-path="url(#p8e4ffc5d42)"
           style="fill:none;stroke:#b0b0b0;stroke-width:0.8;stroke-linecap:square"
           id="path4004" />
      </g>
    </g>
    <g
       id="ytick_3">
      <g
         id="line2d_11">
        <path
           d="m 286.98365,174.528 c 0,-6.6741 -1.31465,-13.2833 -3.86872,-19.44937 -2.55407,-6.16606 -6.29788,-11.76908 -11.01718,-16.48838 -4.71931,-4.7193 -10.32232,-8.46311 -16.48838,-11.01718 -6.16607,-2.55407 -12.77527,-3.86872 -19.44937,-3.86872 -6.6741,0 -13.2833,1.31465 -19.44937,3.86872 -6.16606,2.55407 -11.76908,6.29788 -16.48838,11.01718 -4.7193,4.7193 -8.46311,10.32232 -11.01718,16.48838 -2.55407,6.16607 -3.86872,12.77527 -3.86872,19.44937 0,6.6741 1.31465,13.2833 3.86872,19.44937 2.55407,6.16606 6.29788,11.76907 11.01718,16.48838 4.7193,4.7193 10.32232,8.46311 16.48838,11.01718 6.16607,2.55407 12.77527,3.86872 19.44937,3.86872 6.6741,0 13.2833,-1.31465 19.44937,-3.86872 6.16606,-2.55407 11.76907,-6.29788 16.48838,-11.01718 4.7193,-4.71931 8.46311,-10.32232 11.01718,-16.48838 2.55407,-6.16607 3.86872,-12.77527 3.86872,-19.44937"
           clip-path="url(#p8e4ffc5d42)"
           style="fill:none;stroke:#b0b0b0;stroke-width:0.8;stroke-linecap:square"
           id="path4008" />
      </g>
    </g>
    <g
       id="ytick_4">
      <g
         id="line2d_12">
        <path
           d="m 303.92486,174.528 c 0,-8.8988 -1.75287,-17.71107 -5.15829,-25.93249 -3.40542,-8.22142 -8.39717,-15.6921 -14.68958,-21.9845 -6.2924,-6.29241 -13.76308,-11.28416 -21.9845,-14.68958 -8.22142,-3.40542 -17.03369,-5.15829 -25.93249,-5.15829 -8.8988,0 -17.71107,1.75287 -25.93249,5.15829 -8.22142,3.40542 -15.6921,8.39717 -21.98451,14.68958 -6.2924,6.2924 -11.28415,13.76308 -14.68957,21.9845 -3.40543,8.22142 -5.15829,17.03369 -5.15829,25.93249 0,8.8988 1.75286,17.71107 5.15829,25.93249 3.40542,8.22142 8.39717,15.6921 14.68957,21.9845 6.29241,6.29241 13.76309,11.28416 21.98451,14.68958 8.22142,3.40542 17.03369,5.15829 25.93249,5.15829 8.8988,0 17.71107,-1.75287 25.93249,-5.15829 8.22142,-3.40542 15.6921,-8.39717 21.9845,-14.68958 6.29241,-6.2924 11.28416,-13.76308 14.68958,-21.9845 3.40542,-8.22142 5.15829,-17.03369 5.15829,-25.93249"
           clip-path="url(#p8e4ffc5d42)"
           style="fill:none;stroke:#b0b0b0;stroke-width:0.8;stroke-linecap:square"
           id="path4012" />
      </g>
    </g>
    <g
       id="ytick_5">
      <g
         id="line2d_13">
        <path
           d="m 320.86608,174.528 c 0,-11.1235 -2.19109,-22.13884 -6.44787,-32.41561 -4.25678,-10.27678 -10.49646,-19.61513 -18.36197,-27.48063 -7.8655,-7.86551 -17.20385,-14.10519 -27.48063,-18.361974 C 258.29884,92.013007 247.2835,89.82192 236.16,89.82192 c -11.1235,0 -22.13884,2.191087 -32.41561,6.447866 -10.27678,4.256784 -19.61513,10.496464 -27.48063,18.361974 -7.86551,7.8655 -14.1052,17.20385 -18.36197,27.48063 -4.25678,10.27677 -6.44787,21.29211 -6.44787,32.41561 0,11.1235 2.19109,22.13884 6.44787,32.41561 4.25677,10.27678 10.49646,19.61513 18.36197,27.48063 7.8655,7.86551 17.20385,14.10519 27.48063,18.36197 10.27677,4.25678 21.29211,6.44787 32.41561,6.44787 11.1235,0 22.13884,-2.19109 32.41561,-6.44787 10.27678,-4.25678 19.61513,-10.49646 27.48063,-18.36197 7.86551,-7.8655 14.10519,-17.20385 18.36197,-27.48063 4.25678,-10.27677 6.44787,-21.29211 6.44787,-32.41561"
           clip-path="url(#p8e4ffc5d42)"
           style="fill:none;stroke:#b0b0b0;stroke-width:0.8;stroke-linecap:square"
           id="path4016" />
      </g>
    </g>
    <g
       id="ytick_6">
      <g
         id="line2d_14">
        <path
           d="m 337.8073,174.528 c 0,-13.3482 -2.62931,-26.56661 -7.73744,-38.89874 -5.10814,-12.33213 -12.59576,-23.53815 -22.03437,-32.97675 -9.4386,-9.438606 -20.64462,-16.926232 -32.97675,-22.034367 -12.33213,-5.108135 -25.55054,-7.73744 -38.89874,-7.73744 -13.3482,0 -26.56661,2.629305 -38.89874,7.73744 -12.33213,5.108135 -23.53815,12.595761 -32.97675,22.034367 -9.43861,9.4386 -16.92623,20.64462 -22.03437,32.97675 -5.10813,12.33213 -7.73744,25.55054 -7.73744,38.89874 0,13.3482 2.62931,26.56661 7.73744,38.89874 5.10814,12.33213 12.59576,23.53815 22.03437,32.97675 9.4386,9.43861 20.64462,16.92623 32.97675,22.03437 12.33213,5.10813 25.55054,7.73744 38.89874,7.73744 13.3482,0 26.56661,-2.62931 38.89874,-7.73744 12.33213,-5.10814 23.53815,-12.59576 32.97675,-22.03437 9.43861,-9.4386 16.92623,-20.64462 22.03437,-32.97675 5.10813,-12.33213 7.73744,-25.55054 7.73744,-38.89874"
           clip-path="url(#p8e4ffc5d42)"
           style="fill:none;stroke:#b0b0b0;stroke-width:0.8;stroke-linecap:square"
           id="path4020" />
      </g>
    </g>
    <g
       id="ytick_7">
      <g
         id="line2d_15">
        <path
           d="m 354.74851,174.528 c 0,-15.5729 -3.06752,-30.99438 -9.02701,-45.38186 C 339.76201,114.75866 331.02645,101.68496 320.01474,90.673259 309.00304,79.661555 295.92934,70.925992 281.54186,64.9665 267.15438,59.007009 251.7329,55.939487 236.16,55.939487 c -15.5729,0 -30.99438,3.067522 -45.38186,9.027013 -14.38748,5.959492 -27.46118,14.695055 -38.47288,25.706759 -11.01171,11.011701 -19.74727,24.085401 -25.70676,38.472881 -5.95949,14.38748 -9.02701,29.80896 -9.02701,45.38186 0,15.5729 3.06752,30.99437 9.02701,45.38186 5.95949,14.38748 14.69505,27.46118 25.70676,38.47288 11.0117,11.01171 24.0854,19.74727 38.47288,25.70676 14.38748,5.95949 29.80896,9.02701 45.38186,9.02701 15.5729,0 30.99438,-3.06752 45.38186,-9.02701 14.38748,-5.95949 27.46118,-14.69505 38.47288,-25.70676 11.01171,-11.0117 19.74727,-24.0854 25.70676,-38.47288 5.95949,-14.38749 9.02701,-29.80896 9.02701,-45.38186"
           clip-path="url(#p8e4ffc5d42)"
           style="fill:none;stroke:#b0b0b0;stroke-width:0.8;stroke-linecap:square"
           id="path4024" />
      </g>
    </g>
  </g>
  <g
     id="line2d_16"
     transform="translate(-78.158687,-22.8095)">
    <path
       d="m 328.48804,174.528 2.83653,-5.38717 2.42876,-5.07701 2.31609,-5.35992 1.91178,-4.92867 15.83655,-3.99872 -1.58624,-5.05061 -1.77747,-4.96667 -0.74829,-2.12448 -0.75574,-5.32209 -0.98026,-5.33723 -1.21,-5.34304 -1.00769,-3.81449 0.83216,-1.31309 -0.15591,-0.80515 -2.70581,0.57243 -0.74686,-0.46648 -1.11571,-2.00868 3.86845,-3.1417 -1.1963,-2.07031 -0.0279,-0.91939 -2.79526,0.80571 -3.02294,-4.56556 -1.8104,-2.5518 0.39218,-1.26002 1.51339,-2.113016 -0.96672,-1.286009 0.14447,-1.130124 0.44696,-1.380714 -1.2688,-0.03431 -1.31298,-1.02162 -0.52536,-0.614714 -1.33903,0.06728 -0.8736,-0.310085 -1.70298,0.410499 -0.81744,-0.334391 -0.59007,-0.528199 -1.7925,-0.498035 -2.42694,-0.928778 -3.73798,-3.907214 2.7866,-4.007611 -6.8572,6.04565 -4.90561,-1.1999 -5.64653,-1.140653 -3.18355,-0.53338 -0.58575,-0.391467 -1.60417,0.974707 -5.48436,-0.546675 -5.34967,-0.324471 -5.9394,-0.124276 -5.74657,0.111701 -5.5505,0.321433 -6.01011,0.582497 -5.7662,0.786987 -5.52973,0.964655 -5.87891,1.252198 -5.61527,1.416353 -5.89336,1.721621 -1.04144,0.329634 -0.64411,6.888567 -5.97678,2.36566 -5.6349,2.46488 -5.74184,2.75436 -5.45731,2.85449 -3.38347,1.88442 -6.2413,-6.69637 -6.46631,-6.632604 -2.41602,-2.39804 -7.29892,-12.903424 -5.01131,2.930429 -4.34513,2.77302 -2.87789,-3.135617 -4.68868,-5.706044 -0.59185,0.404444 -8.99936,-11.638416 -0.66468,0.461498 1.27051,3.160717 -0.60828,0.504042 1.46344,3.317103 -0.54538,0.549645 -4.27348,3.231097 -4.14397,3.402671 -2.87508,2.535327 1.93196,3.111589 -1.13371,3.063907 -0.40103,0.636323 -1.58851,1.531088 1.65535,2.537542 -0.73271,4.111993 2.1267,2.75467 -0.64321,5.55844 -0.141,1.56027 -0.20546,0.66823 -3.48236,3.97083 -3.3511,4.12696 -3.21398,4.28322 -3.07033,4.43949 -2.91952,4.59558 -2.76085,4.75116 -0.33353,0.60479 8.97345,3.82549 0.28277,5.8855 0.50285,5.71711 0.70347,5.55108 0.99605,5.97824 -4.28979,7.3747 -2.54356,4.86592 -2.44047,5.12921 -2.31295,5.40127 -1.89734,4.95423 -1.75746,5.16942 -1.59475,5.3844 -1.40752,5.59653 -0.36416,1.63723 0.41037,1.39223 1.21671,3.41679 -1.97306,4.75531 -1.48169,3.94164 -0.87714,1.24154 4.64354,-1.29589 0.34425,0.66113 1.18217,0.25996 0.69136,1.30598 0.25217,0.69943 1.05236,1.9506 0.13701,1.60548 -0.55752,1.15379 1.04686,1.98999 0.0266,0.85199 -6.58806,4.76979 0.4183,0.68529 3.46365,-1.16787 1.47798,0.005 1.15448,0.18875 2.7455,0.0573 4.12243,-0.0459 3.29983,4.82871 0.42732,0.59376 35.86625,-26.5403 3.26869,1.37964 3.67956,-2.54494 6.19945,2.49268 6.24624,2.27648 1.5118,0.51683 0.18292,0.38399 -0.093,3.42962 0.21342,0.38695 6.16991,1.92344 6.37161,1.75751 6.62653,1.58938 2.56317,0.55105 1.26399,-3.71664 6.86838,1.26997 6.64227,1.00641 3.22112,0.41034 0.67498,4.18935 5.00551,-0.27641 9.06501,52.62234 5.62092,-1.30257 5.54916,-1.53684 5.52858,-1.58837 1.88738,1.0877 0.74321,-0.0829 0.68625,-0.25044 0.76437,-0.0332 0.96868,0.51504 3.42641,-1.35412 1.97377,0.90168 0.71914,-0.21697 1.25649,1.02216 0.64662,-0.40804 1.41533,-0.53781 0.83554,0.005 0.51558,-0.68521 2.09047,-0.88686 0.88736,0.0819 1.16279,0.60947 1.39458,-0.63977 0.23568,-1.18672 2.00879,-1.08275 1.12,0.4341 -1.74135,-4.56939 0.2428,-1.04525 5.01289,-3.01826 4.88162,-3.23504 4.1577,-3.00528 4.04612,-3.16534 3.9293,-3.32252 3.8072,-3.47674 2.11867,-2.05477 5.47643,3.95753 -2.00398,-2.83447 1.90369,-3.35137 3.53763,-3.93389 3.38935,-4.08216 1.86784,-2.39762 -21.41411,-14.87641 -0.95237,-6.06345 -1.24939,-6.39089 -1.38979,-5.95687 -1.66065,-6.14441 -0.17118,-0.58856 4.09033,-5.00634 3.73437,-4.94255 3.36929,-4.81877 3.32785,-5.15855 2.94081,-4.95717 0.96509,-1.72236 v 0"
       clip-path="url(#p8e4ffc5d42)"
       style="fill:none;stroke:#1f77b4;stroke-width:1.5;stroke-linecap:square"
       id="path4029" />
  </g>
  <g
     id="patch_3"
     transform="translate(-78.158687,-22.8095)">
    <path
       d="m 369.216,174.528 c 0,-17.47275 -3.44175,-34.77561 -10.12829,-50.91833 C 352.40118,107.46695 342.5999,92.798303 330.2448,80.4432 317.8897,68.088097 303.22105,58.286818 287.07833,51.600285 270.93561,44.913752 253.63275,41.472 236.16,41.472 c -17.47275,0 -34.77561,3.441752 -50.91833,10.128285 -16.14272,6.686533 -30.81137,16.487812 -43.16647,28.842915 -12.3551,12.355103 -22.15638,27.02375 -28.84291,43.16647 -6.68654,16.14272 -10.12829,33.44558 -10.12829,50.91833 0,17.47275 3.44175,34.77561 10.12829,50.91833 6.68653,16.14272 16.48781,30.81137 28.84291,43.16647 12.3551,12.3551 27.02375,22.15638 43.16647,28.84291 16.14272,6.68654 33.44558,10.12829 50.91833,10.12829 17.47275,0 34.77561,-3.44175 50.91833,-10.12829 16.14272,-6.68653 30.81137,-16.48781 43.16647,-28.84291 12.3551,-12.3551 22.15638,-27.02375 28.84291,-43.16647 6.68654,-16.14272 10.12829,-33.44558 10.12829,-50.91833"
       style="fill:none;stroke:#000000;stroke-width:0.8;stroke-linecap:square;stroke-linejoin:miter"
       id="path4032" />
  </g>
  <defs
     id="defs4170">
    <clipPath
       id="p8e4ffc5d42">
      <path
         d="m 369.216,174.528 c 0,-17.47275 -3.44175,-34.77561 -10.12829,-50.91833 C 352.40118,107.46695 342.5999,92.798303 330.2448,80.4432 317.8897,68.088097 303.22105,58.286818 287.07833,51.600285 270.93561,44.913752 253.63275,41.472 236.16,41.472 c -17.47275,0 -34.77561,3.441752 -50.91833,10.128285 -16.14272,6.686533 -30.81137,16.487812 -43.16647,28.842915 -12.3551,12.355103 -22.15638,27.02375 -28.84291,43.16647 -6.68654,16.14272 -10.12829,33.44558 -10.12829,50.91833 0,17.47275 3.44175,34.77561 10.12829,50.91833 6.68653,16.14272 16.48781,30.81137 28.84291,43.16647 12.3551,12.3551 27.02375,22.15638 43.16647,28.84291 16.14272,6.68654 33.44558,10.12829 50.91833,10.12829 17.47275,0 34.77561,-3.44175 50.91833,-10.12829 16.14272,-6.68653 30.81137,-16.48781 43.16647,-28.84291 12.3551,-12.3551 22.15638,-27.02375 28.84291,-43.16647 6.68654,-16.14272 10.12829,-33.44558 10.12829,-50.91833 m -133.056,0 c 0,0 0,0 0,0 0,0 0,0 0,0 0,0 0,0 0,0 0,0 0,0 0,0 0,0 0,0 0,0 0,0 0,0 0,0 0,0 0,0 0,0 0,0 0,0 0,0 0,0 0,0 0,0 0,0 0,0 0,0 0,0 0,0 0,0 0,0 0,0 0,0 0,0 0,0 0,0 0,0 0,0 0,0 0,0 0,0 0,0 0,0 0,0 0,0 z"
         id="path4167" />
    </clipPath>
  </defs>
</svg>
